<svg height="512pt" viewBox="0 -45 512 512" width="512pt" xmlns="http://www.w3.org/2000/svg"><path d="m138.667969 96h-21.335938v21.332031h21.335938zm0 0"/><path d="m245.332031 96h-21.332031v21.332031h21.332031zm0 0"/><path d="m320 224h-21.332031v21.332031h21.332031zm0 0"/><path d="m426.667969 224h-21.335938v21.332031h21.335938zm0 0"/><path d="m469.332031 422.535156-65.730469-32.800781c-13.398437 3.269531-27.140624 4.925781-40.933593 4.933594-82.402344 0-149.335938-57.46875-149.335938-128 0-70.535157 66.933594-128 149.335938-128 82.398437 0 149.332031 57.464843 149.332031 128 0 33.867187-15.066406 65.464843-42.667969 89.464843zm-63.332031-55.46875 42 21.066406v-42l4-3.199218c24.933594-20.265625 38.667969-47.332032 38.667969-76.265625 0-58.800781-57.46875-106.667969-128-106.667969-70.535157 0-128 47.867188-128 106.667969 0 58.796875 57.464843 106.664062 128 106.664062 13.324219.019531 26.597656-1.730469 39.464843-5.199219zm0 0"/><path d="m64 326.535156v-63.335937c-40.800781-28.53125-64-69.734375-64-113.867188 0-82.398437 81.332031-149.332031 181.332031-149.332031s181.335938 66.933594 181.335938 149.332031l-21.335938.402344v-.402344c0-70.53125-71.730469-128-160-128-88.265625 0-160 57.46875-160 128 0 38.535157 21.601563 74.667969 59.203125 99.203125l4.796875 3.199219v40.398437l43.601563-21.734374 3.867187.933593c29.613281 7.433594 60.539063 7.980469 90.398438 1.601563l4.535156 20.800781c-31.761719 6.785156-64.625 6.511719-96.269531-.800781zm0 0"/></svg>